<svg width="458" height="114" viewBox="0 0 458 114" fill="none" xmlns="http://www.w3.org/2000/svg">
<path d="M33.6901 61.4889L24.5847 70.5149C24.5412 70.5588 24.4707 70.5588 24.4272 70.5149L15.115 60.7714C14.8663 60.5206 22.9439 52.7664 23.6741 51.9259L0 27.8424V11.2642C0 9.39157 0.454751 7.62603 1.25898 6.07373L36.0609 41.1652L54.0314 23.0449C54.9009 22.1682 56.3107 22.1682 57.1802 23.0449L63.163 29.0776C64.0325 29.9544 64.0325 31.3759 63.163 32.2527L45.1926 50.3729L73.1274 78.5401C75.0293 80.4268 78.0804 80.4268 79.9823 78.5401L114 44.2389V67.2772L91.4062 90.0593C83.1951 98.3081 69.9146 98.3081 61.7035 90.0593L33.6901 61.4889Z" fill="white"/>
<path d="M36.0219 41.355L1.40161 5.96114C2.32645 4.08416 3.86987 2.50817 5.71149 1.5077C7.5224 0.523909 9.31864 0 14.2721 0H99.5722C104.526 0 106.322 0.523909 108.133 1.5077C109.944 2.49149 111.365 3.93516 112.333 5.77469C113.302 7.61422 113.818 9.43885 113.818 14.4706L114 44.2558L79.8627 78.9378C77.9643 80.8349 74.9189 80.8349 73.0204 78.9378L45.1368 50.6139L63.0743 32.3929C63.9422 31.5112 63.9422 30.0818 63.0743 29.2002L57.1025 23.134C56.2345 22.2523 54.8273 22.2523 53.9594 23.134L36.0219 41.355Z" fill="#E96187"/>
<path d="M24.6374 51.5367L15.6068 60.6657C15.5779 60.695 18.5693 63.7721 24.581 69.8969C24.61 69.9262 27.6727 66.8832 33.7691 60.7678L61.7039 89.0068C69.915 97.2766 83.1955 97.2766 91.4066 89.0068L114 66.1672V99.5728C114 104.589 113.483 106.409 112.513 108.243C111.543 110.077 110.119 111.516 108.305 112.497C106.49 113.478 104.691 114 99.7284 114H14.2716C9.30907 114 7.50953 113.478 5.69529 112.497C3.88106 111.516 2.45723 110.077 1.48697 108.243C0.516705 106.409 0 104.589 0 99.5728V26.6311L24.6374 51.5367Z" fill="#5F4B8B"/>
<path fill-rule="evenodd" clip-rule="evenodd" d="M156.595 70.3027C156.595 80.688 161.293 85.6242 166.39 87.8866C169.409 89.2463 172.69 89.8792 175.984 89.7374C177.119 89.733 178.254 89.6643 179.382 89.5316V80.688L177.083 80.8937C173.485 80.8937 166.289 79.5568 166.289 69.1715V45.3133H178.485V37.2927H166.289V23H156.795V37.2938H150V45.3144H156.595V70.3027Z" fill="#5F4B8B"/>
<path fill-rule="evenodd" clip-rule="evenodd" d="M211.054 35.9097C203.899 35.7451 196.974 38.524 191.803 43.6347C186.586 48.652 183.715 55.7475 183.925 63.1065C183.736 70.4905 186.601 77.6082 191.803 82.6774C202.646 93.1167 219.46 93.1167 230.303 82.6774C235.533 77.6199 238.434 70.5043 238.283 63.1065C238.492 55.7473 235.62 48.6519 230.403 43.6347C225.204 38.5054 218.241 35.7256 211.054 35.9097ZM211.054 81.8469C206.416 81.9313 201.96 79.9874 198.785 76.495C195.402 72.9285 193.566 68.0959 193.699 63.105C193.547 58.1406 195.388 53.332 198.785 49.8163C201.997 46.3913 206.437 44.4902 211.054 44.5635C215.676 44.4513 220.13 46.3587 223.319 49.8163C226.716 53.3314 228.557 58.1391 228.406 63.1027C228.558 68.1277 226.721 72.9998 223.319 76.5964C220.13 80.0532 215.676 81.9597 211.054 81.8469Z" fill="#5F4B8B"/>
<path fill-rule="evenodd" clip-rule="evenodd" d="M259.951 89.1571V67.9302C259.895 64.7753 260.299 61.6297 261.147 58.5973C263.54 50.906 269.025 46.3949 275.408 46.3949C276.347 46.3901 277.284 46.4931 278.2 46.7022V36.8568L275.607 36.6516C268.128 36.6516 262.145 42.2919 259.652 50.1884H259.452L259.652 46.599V43.318C259.652 39.3182 257.557 37.2672 253.268 37.2672H243.994V45.7793H248.083C248.69 45.6788 249.307 45.8839 249.741 46.3307C250.176 46.7775 250.375 47.4116 250.277 48.0354V89.1571H259.951Z" fill="#5F4B8B"/>
<path fill-rule="evenodd" clip-rule="evenodd" d="M297.517 89.1571V67.9302C297.462 64.7752 297.865 61.6295 298.715 58.5973C301.107 50.906 306.593 46.3949 312.975 46.3949C313.914 46.3901 314.851 46.4931 315.767 46.7022V36.8568L313.174 36.6516C305.695 36.6516 299.711 42.2919 297.218 50.1884H297.019L297.218 46.599V43.318C297.218 39.3182 295.124 37.2672 290.836 37.2672H281.561V45.7793H285.65C286.256 45.6788 286.873 45.8839 287.307 46.3307C287.742 46.7775 287.941 47.4116 287.844 48.0354V89.1571H297.517Z" fill="#5F4B8B"/>
<path fill-rule="evenodd" clip-rule="evenodd" d="M345.83 35.9097C338.675 35.7451 331.75 38.524 326.58 43.6347C321.363 48.652 318.492 55.7475 318.702 63.1065C318.513 70.4905 321.378 77.6082 326.58 82.6774C337.423 93.1167 354.237 93.1167 365.079 82.6774C370.31 77.6199 373.211 70.5043 373.059 63.1065C373.269 55.7473 370.397 48.6519 365.18 43.6347C359.981 38.5054 353.018 35.7256 345.83 35.9097ZM345.83 81.8464C341.193 81.9308 336.737 79.9869 333.562 76.4945C330.179 72.9281 328.343 68.0955 328.476 63.1045C328.325 58.1409 330.165 53.3333 333.562 49.8182C336.774 46.3931 341.214 44.492 345.83 44.5653C350.454 44.4525 354.909 46.36 358.098 49.8182C361.495 53.3333 363.336 58.1409 363.185 63.1045C363.337 68.1295 361.5 73.0016 358.098 76.5982C354.908 80.0547 350.453 81.9605 345.83 81.8464Z" fill="#5F4B8B"/>
<path fill-rule="evenodd" clip-rule="evenodd" d="M405.448 89.3072L415.922 55.869C416.42 54.1198 416.914 52.1658 417.317 50.2107H417.517L418.913 55.869L429.387 89.3072H440.256L453.517 47.8484C453.968 46.5141 455.24 45.6664 456.604 45.7909H458V37.2517H451.916C447.429 37.2517 445.734 38.3891 444.437 42.8077L435.562 73.7732C435.013 75.5938 434.58 77.4493 434.265 79.328H434.066L432.77 73.7732L421.899 37.4576H412.924L402.054 73.7732C401.556 75.5225 401.062 77.3741 400.659 79.328H400.459L399.262 73.7732L390.386 42.8077C389.09 38.3834 387.299 37.2517 382.807 37.2517H376.724V45.7909H378.12C379.512 45.6604 380.819 46.5011 381.317 47.8484L394.58 89.3072H405.448Z" fill="#5F4B8B"/>
</svg>
